# xmcd
#
# Track frame offsets:
#	150
#	56793
#	133633
#	176378
#	197528
#
# Disc length: 3389 seconds
#
# Revision: 0
# Processed by: cddbd v1.5.2PL0 Copyright (c) Steve Scherf et al.
# Submitted via: EasyCDDAExtractor 16.0.6.1
#
DISCID=3f0d3b05
DTITLE=Άνευ ερμηνυτού - Βυζαντινοί μαΐστορες-Χ. Χάλαρης 1.3
DYEAR=1991
DGENRE=Βυζαντινή κοσμική
TTITLE0=Άνευ ερμηνυτού - Αρχή του γ' ήχου ποίημα Ιωάννου Κουκουζέλη
TTITLE1=Χορωδία - Κυρού Ιωάννου Κουκουζέλη λεγόμενον του Βασιλέως ήχ. πλ. δ'
TTITLE2=Άνευ ερμηνυτού - Το παρόν έστι ποίημα Ιωάννου Κουκουζέλους και Μαΐστορ
TTITLE2=ος ήχος α'
TTITLE3=Άνευ ερμηνυτού - Έτερον Κυρού Ιωάννου Μαΐστορος Κουκουζέλη ήχος γ'
TTITLE4=Άνευ ερμηνυτού - Ποίημα Κυρού Ιωάννου Κουκουζέλη πάνυ καλόν ήχ. πλ. α'
EXTD=
EXTT0=
EXTT1=
EXTT2=
EXTT3=
EXTT4=
PLAYORDER=
